<svg width="535" height="455" viewBox="0 0 535 455" fill="none" xmlns="http://www.w3.org/2000/svg">
<path fill-rule="evenodd" clip-rule="evenodd" d="M227.261 0.00391313C235.834 0.00391313 244.294 0.490157 252.619 1.41949V23.9237C252.627 23.9237 235.721 22.363 227.261 22.363C114.105 22.363 22.3762 114.042 22.3762 227.131C22.3762 340.217 114.102 431.9 227.261 431.9C235.858 431.9 244.329 431.367 252.643 430.335L252.619 452.847C244.294 453.773 235.834 454.263 227.261 454.263C101.746 454.263 0 352.573 0 227.135C0 101.686 101.75 0.00391313 227.261 0.00391313Z" fill="#F58634"/>
<path fill-rule="evenodd" clip-rule="evenodd" d="M227.262 44.1617C235.867 44.1617 244.33 44.7694 252.621 45.9183V68.2107L252.734 68.234C244.436 66.8893 235.937 66.1874 227.262 66.1874C138.986 66.1874 67.4197 138.245 67.4197 227.128C67.4197 316.011 138.99 388.069 227.262 388.069C235.937 388.069 244.44 387.363 252.734 386.025L252.621 386.045V408.341C244.33 409.491 235.867 410.098 227.262 410.098C126.152 410.098 44.1843 328.179 44.1843 227.128C44.1843 126.073 126.152 44.1617 227.262 44.1617Z" fill="#F58634"/>
<path fill-rule="evenodd" clip-rule="evenodd" d="M227.261 86.362C235.92 86.362 244.395 87.1467 252.619 88.6447V110.031C244.45 108.263 235.967 107.325 227.261 107.325C161.059 107.325 107.388 160.969 107.388 227.132C107.388 293.299 161.059 346.935 227.261 346.935C235.967 346.935 244.45 345.997 252.619 344.233V365.615C244.395 367.117 235.92 367.897 227.261 367.897C149.476 367.897 86.4088 304.871 86.4088 227.128C86.4088 149.385 149.476 86.362 227.261 86.362Z" fill="#F58634"/>
<path fill-rule="evenodd" clip-rule="evenodd" d="M359.945 388.157H378.551L368.914 452.368H350.457L359.945 388.157Z" fill="#F58634"/>
<path fill-rule="evenodd" clip-rule="evenodd" d="M371.194 381.888C367.856 381.888 365.027 380.676 362.692 378.237C360.361 375.806 359.2 372.932 359.2 369.579C359.2 366.348 360.389 363.603 362.751 361.321C365.105 359.043 367.91 357.901 371.194 357.901C374.49 357.901 377.311 359.043 379.646 361.321C381.957 363.599 383.122 366.348 383.122 369.579C383.122 373.081 382.012 376.006 379.756 378.339C377.496 380.704 374.757 381.888 371.516 381.888H371.194Z" fill="#F58634"/>
<path fill-rule="evenodd" clip-rule="evenodd" d="M386 389H394.573V413.114H424.427V389H433V452H424.427V421.712H394.573V452H386V389Z" fill="#F58634"/>
<path fill-rule="evenodd" clip-rule="evenodd" d="M444 411H452.72V434.026C452.72 441.13 455.859 444.68 462.174 444.68C464.981 444.68 467.206 443.733 468.841 441.844C470.462 439.929 471.284 437.327 471.284 434.026V411H480V435.412C480 440.537 478.305 444.748 474.92 448.044C471.552 451.344 467.226 453 461.981 453C456.613 453 452.288 451.344 448.972 448.044C445.663 444.748 444 440.437 444 435.111V411Z" fill="#F58634"/>
<path fill-rule="evenodd" clip-rule="evenodd" d="M492 388H500.441V419.201C504.035 413.106 509.161 410.074 515.846 410.074C521.029 410.074 525.493 412.165 529.304 416.385C533.095 420.589 535 425.57 535 431.372C535 437.146 533.12 442.201 529.403 446.52C525.669 450.835 521.309 453 516.343 453C513.132 453 510.098 452.127 507.23 450.399C504.35 448.67 502.087 446.294 500.441 443.326V451.896H492V388ZM526.057 431.35C526.057 427.636 524.752 424.451 522.122 421.814C519.486 419.149 516.307 417.83 512.589 417.83C508.974 417.83 505.852 419.176 503.216 421.86C500.565 424.525 499.245 427.698 499.245 431.35C499.245 435.176 500.565 438.386 503.216 441.008C505.852 443.63 509.104 444.939 512.962 444.939C516.539 444.939 519.606 443.615 522.179 440.941C524.768 438.266 526.057 435.071 526.057 431.35Z" fill="#F58634"/>
<path fill-rule="evenodd" clip-rule="evenodd" d="M286.272 371.595H263.252C263.955 361.191 267.795 352.851 274.701 346.545C281.642 340.252 289.952 337.087 299.639 337.087C310.26 337.087 319.336 340.095 326.791 346.126C334.245 352.149 337.965 359.423 337.965 367.909C337.965 377.186 333.371 385.554 324.209 393.044C330.051 396.726 334.316 400.589 337.027 404.6C339.734 408.623 341.073 413.427 341.073 419.03C341.073 429.677 337.545 438.229 330.451 444.648C323.389 451.067 314.043 454.29 302.378 454.29C291.573 454.29 282.591 451.216 275.497 445.067C268.4 438.895 264.021 430.343 262.346 419.418H285.903C288.708 430.249 294.096 435.664 302.044 435.664C306.031 435.664 309.382 434.264 312.124 431.437C314.866 428.606 316.236 425.108 316.236 420.94C316.236 415.827 314.588 411.627 311.276 408.399C307.957 405.145 303.716 403.533 298.514 403.533H294.315V384.362H296.814C302.233 384.362 306.588 383.025 309.876 380.347C313.133 377.7 314.772 374.139 314.772 369.759C314.772 365.771 313.498 362.395 310.912 359.56C308.326 356.737 305.152 355.337 301.413 355.337C292.703 355.337 287.649 360.748 286.28 371.587L286.272 371.595Z" fill="#F58634"/>
</svg>
